# xmcd
#
# Track frame offsets: 
#        150
#        12760
#        23698
#        37610
#        48841
#        59112
#        69152
#        80403
#        91016
#        100499
#        113107
#        125370
#        136691
#        146380
#        156126
#        168036
#        179406
#        191206
#        202622
#        212580
#        222345
#        231743
#        241095
#        250767
#        260125
#        272613
#        283015
#        295998
#        308713
#        320741
#
# Disc length: 4447 seconds
#
# Revision: 0
# Processed by: cddbd v1.5.2PL0 Copyright (c) Steve Scherf et al.
# Submitted via: ExactAudioCopyFreeDBPlugin 1.0
#
DISCID=a5115d1e
DTITLE=Link Davis - Gumbo Ya-Ya: The Best Of 1948-58
DYEAR=2008
DGENRE=Country
TTITLE0=Big Mamou
TTITLE1=Pretty Little Dedon
TTITLE2=Lonely Heart
TTITLE3=Time Will Tell
TTITLE4=Mamou Waltz
TTITLE5=Hey, Garcon!
TTITLE6=Falling For You
TTITLE7=Gumbo Ya-Ya (Everybody Talks At Once)
TTITLE8=Crawfish Crawl
TTITLE9=You're Little But You're Cute
TTITLE10=Mama Say No
TTITLE11=You Show Up Missing
TTITLE12=Every Time I Pass Your Door
TTITLE13=Cajun Love
TTITLE14=Kajalena
TTITLE15=Va T'Cacher (Go Hide Yourself)
TTITLE16=Joe Turner
TTITLE17=Have You Heard The News
TTITLE18=Grasshopper
TTITLE19=Sixteen Chicks
TTITLE20=Grasshopper Rock
TTITLE21=Trucker From Tennessee
TTITLE22=Don't Big Shot Me
TTITLE23=Cockroach
TTITLE24=Slippin' And Slidin' Sometimes
TTITLE25=Bon-Ton-Ru-La (Let The Good Times Roll)
TTITLE26=Rice and Gravy Blues
TTITLE27=You Played Around
TTITLE28=Rice and Gravy Boogie
TTITLE29=San Antonio Blues
EXTD=
EXTT0=
EXTT1=
EXTT2=
EXTT3=
EXTT4=
EXTT5=
EXTT6=
EXTT7=
EXTT8=
EXTT9=
EXTT10=
EXTT11=
EXTT12=
EXTT13=
EXTT14=
EXTT15=
EXTT16=
EXTT17=
EXTT18=
EXTT19=
EXTT20=
EXTT21=
EXTT22=
EXTT23=
EXTT24=
EXTT25=
EXTT26=
EXTT27=
EXTT28=
EXTT29=
PLAYORDER=
